<svg width="673" height="514" xmlns="http://www.w3.org/2000/svg"><g fill="none" fill-rule="evenodd"><path d="M165.138 74C263 48 574.005-43.22 652.505 35.28s-94.844 286.358-173.367 364.882C400.614 478.686 269.513 506.512 189 426c-80.513-80.513-121.725-326-23.862-352z" fill-opacity=".8" fill="#B8E65C"/><path d="M12 190C73.3 128.7 522.35-18.19 617.85 77.31c73.77 73.772 28.491 200.51-65 294C459.357 464.804 368 565 264 484 160 403-49.3 251.3 12 190z" fill-opacity=".75" fill="#88C425"/><path d="M66.604 263.868C104.774 172.482 5.662-3.788 141.847.968 278.032 5.722 701.354 197.7 664.183 286.697c-37.17 88.996-285.346 149.929-420.01 145.226-134.666-4.702-215.738-76.67-177.569-168.056z" fill-opacity=".65" fill="#9EE37D"/><path d="M170.32 259.21c-2.968 0-5.664-.722-8.086-2.167-2.422-1.445-4.336-3.62-5.742-6.523-1.406-2.904-2.11-6.44-2.11-10.606 0-4.062.723-7.617 2.169-10.664 1.445-3.047 3.379-5.378 5.8-6.992 2.422-1.615 5.053-2.422 7.891-2.422 1.459 0 2.995.351 4.61 1.055 1.614.703 2.955 1.601 4.023 2.695v-19.57h9.766v.898a2.168 2.168 0 0 0-.547 1.035c-.078.378-.104 1.01-.078 1.895l-.157 45.664c0 .911.052 1.712.157 2.402.104.69.338 1.387.703 2.09h-8.711c-.365-.677-.58-1.315-.645-1.914-.065-.599-.097-1.458-.097-2.578-.782 1.875-2.019 3.294-3.711 4.258-1.693.963-3.438 1.445-5.235 1.445zm1.29-7.46c4.895 0 7.343-4.284 7.343-12.852 0-3.593-.52-6.458-1.562-8.593-1.042-2.136-2.891-3.203-5.547-3.203-2.813 0-4.916 1.171-6.309 3.515-1.393 2.344-2.09 5.39-2.09 9.14 0 2.787.41 5.079 1.23 6.876.821 1.797 1.85 3.099 3.087 3.906 1.237.807 2.52 1.211 3.847 1.211zm41.992 7.54c-3.594 0-6.797-.782-9.61-2.345-2.812-1.562-5.02-3.808-6.62-6.738-1.602-2.93-2.403-6.387-2.403-10.371 0-4.037.755-7.565 2.265-10.586 1.51-3.02 3.607-5.345 6.29-6.973 2.682-1.627 5.716-2.441 9.101-2.441 2.995 0 5.697.697 8.105 2.09 2.41 1.393 4.317 3.463 5.723 6.21 1.406 2.748 2.11 6.062 2.11 9.942 0 .625-.053 1.51-.157 2.656l-.078 1.094h-24.492c.39 3.412 1.458 5.983 3.203 7.715 1.745 1.732 3.828 2.598 6.25 2.598 1.719 0 3.45-.398 5.195-1.192 1.745-.794 3.177-1.907 4.297-3.34l4.961 4.961c-3.776 4.48-8.49 6.72-14.14 6.72zm6.015-24.024c0-1.563-.306-3.008-.918-4.336-.612-1.328-1.484-2.39-2.617-3.184s-2.441-1.191-3.926-1.191c-2.187 0-3.997.787-5.43 2.363-1.432 1.575-2.291 3.691-2.578 6.348h15.47zm49.024-14.61a26.835 26.835 0 0 1-1.23 6.543c-.691 2.175-1.7 4.955-3.028 8.34L255.516 258h-7.344l-14.18-37.344h8.906l9.336 27.383 5.352-13.555c1.042-2.994 1.823-5.533 2.344-7.617a25.53 25.53 0 0 0 .78-6.21h7.93zM279.109 258v-7.188h8.985v-22.968h-8.555v-7.188h17.5v30.156h8.164V258H279.11zM292 214.172a5.655 5.655 0 0 1-2.813-.723 5.472 5.472 0 0 1-2.03-1.933 4.918 4.918 0 0 1-.743-2.618c0-1.536.52-2.806 1.563-3.808 1.041-1.003 2.382-1.504 4.023-1.504.964 0 1.882.24 2.754.723a5.687 5.687 0 0 1 2.09 1.953c.52.82.781 1.699.781 2.636 0 .938-.26 1.81-.781 2.618a5.746 5.746 0 0 1-2.09 1.933 5.616 5.616 0 0 1-2.754.723zm41.914 37.422c1.693 0 3.353-.39 4.98-1.172 1.628-.781 3.145-2.044 4.551-3.79l5.196 6.016c-2.006 2.266-4.265 3.94-6.778 5.02a19.91 19.91 0 0 1-7.949 1.621c-3.646 0-6.901-.846-9.766-2.539-2.864-1.693-5.097-4.03-6.699-7.012-1.601-2.982-2.402-6.334-2.402-10.058 0-3.698.8-7.058 2.402-10.078 1.602-3.021 3.841-5.404 6.719-7.149s6.152-2.617 9.824-2.617c3.073 0 5.95.625 8.633 1.875 2.682 1.25 4.792 3.02 6.328 5.312l-5 5.86-.039.078c-.026 0-.039-.007-.039-.02v-.02c-1.094-1.9-2.422-3.313-3.984-4.237-1.563-.925-3.529-1.387-5.899-1.387-1.823 0-3.483.52-4.98 1.562-1.498 1.042-2.683 2.513-3.555 4.414-.872 1.901-1.309 4.089-1.309 6.563 0 2.37.41 4.44 1.23 6.21.821 1.772 1.974 3.139 3.458 4.102 1.484.964 3.177 1.446 5.078 1.446zm8.906-18.79c0-.077.026-.117.078-.117.157 0 .417.183.782.547l-.157.196-.703-.586v-.04zm1.094.157c.156.312.234.495.234.547 0 .026-.013.039-.039.039-.078 0-.221-.104-.43-.313l.235-.273zm29.688 26.328c-3.594 0-6.797-.781-9.61-2.344-2.812-1.562-5.02-3.808-6.62-6.738-1.602-2.93-2.403-6.387-2.403-10.371 0-4.037.755-7.565 2.265-10.586 1.51-3.02 3.607-5.345 6.29-6.973 2.682-1.627 5.716-2.441 9.101-2.441 2.995 0 5.697.697 8.105 2.09 2.41 1.393 4.317 3.463 5.723 6.21 1.406 2.748 2.11 6.062 2.11 9.942 0 .625-.053 1.51-.157 2.656l-.078 1.094h-24.492c.39 3.412 1.458 5.983 3.203 7.715 1.745 1.732 3.828 2.598 6.25 2.598 1.719 0 3.45-.398 5.195-1.192 1.745-.794 3.177-1.907 4.297-3.34l4.961 4.961c-3.776 4.48-8.49 6.72-14.14 6.72zm6.015-24.023c0-1.563-.306-3.008-.918-4.336-.612-1.328-1.484-2.39-2.617-3.184s-2.441-1.191-3.926-1.191c-2.187 0-3.997.787-5.43 2.363-1.432 1.575-2.291 3.691-2.578 6.348h15.47zm15.82 17.148l19.375-24.18h-17.851v-7.578h29.844v5.586l-19.14 24.219h17.03c.86 0 1.491-.046 1.895-.137.403-.09.762-.28 1.074-.566h.899V258h-33.125v-5.586zm58.165 6.875c-3.594 0-6.797-.781-9.61-2.344-2.812-1.562-5.02-3.808-6.62-6.738-1.602-2.93-2.403-6.387-2.403-10.371 0-4.037.755-7.565 2.265-10.586 1.51-3.02 3.607-5.345 6.29-6.973 2.682-1.627 5.716-2.441 9.101-2.441 2.995 0 5.697.697 8.105 2.09 2.41 1.393 4.317 3.463 5.723 6.21 1.406 2.748 2.11 6.062 2.11 9.942 0 .625-.053 1.51-.157 2.656l-.078 1.094h-24.492c.39 3.412 1.458 5.983 3.203 7.715 1.745 1.732 3.828 2.598 6.25 2.598 1.719 0 3.45-.398 5.195-1.192 1.745-.794 3.177-1.907 4.297-3.34l4.961 4.961c-3.776 4.48-8.49 6.72-14.14 6.72zm6.015-24.023c0-1.563-.306-3.008-.918-4.336-.612-1.328-1.484-2.39-2.617-3.184s-2.441-1.191-3.926-1.191c-2.187 0-3.997.787-5.43 2.363-1.432 1.575-2.291 3.691-2.578 6.348h15.47zm45.899-3.282l-.04-.039c-.989-1.614-2.057-2.767-3.203-3.457-1.145-.69-2.487-1.035-4.023-1.035-1.901 0-3.62.45-5.156 1.348-1.537.898-2.741 2.18-3.614 3.847-.872 1.667-1.308 3.607-1.308 5.82V258h-9.063v-37.344h9.22v5.352c.989-1.927 2.44-3.438 4.355-4.531 1.914-1.094 4.056-1.641 6.425-1.641 1.85 0 3.692.345 5.528 1.035 1.836.69 3.47 1.712 4.902 3.066l-4.023 8.047zm-1.133.04c0-.027.013-.04.039-.04.078 0 .215.059.41.176.195.117.345.202.45.254l-.04.117-.82-.39-.04-.118zm1.133-.04c.156.26.234.443.234.547 0 .026-.026.04-.078.04-.078 0-.208-.053-.39-.157l.234-.43zm26.562 27.305c-3.307 0-6.315-.846-9.023-2.539-2.709-1.693-4.844-4.05-6.407-7.07-1.562-3.021-2.343-6.459-2.343-10.313 0-3.62.794-6.92 2.383-9.902 1.588-2.982 3.743-5.332 6.464-7.05 2.722-1.72 5.697-2.58 8.926-2.58 3.23 0 6.205.86 8.926 2.58 2.721 1.718 4.876 4.068 6.465 7.05 1.588 2.982 2.383 6.282 2.383 9.902 0 3.854-.782 7.292-2.344 10.313-1.563 3.02-3.698 5.377-6.406 7.07-2.709 1.693-5.717 2.54-9.024 2.54zm0-7.226c1.771 0 3.314-.528 4.629-1.583 1.315-1.054 2.324-2.539 3.027-4.453.704-1.914 1.055-4.134 1.055-6.66 0-2.552-.351-4.752-1.055-6.601-.703-1.85-1.712-3.269-3.027-4.258-1.315-.99-2.858-1.485-4.629-1.485-1.693 0-3.183.495-4.473 1.485-1.289.99-2.291 2.415-3.007 4.277-.716 1.862-1.075 4.056-1.075 6.582 0 2.552.345 4.785 1.036 6.7.69 1.913 1.673 3.391 2.949 4.433 1.276 1.042 2.8 1.563 4.57 1.563z" fill="#FFF"/></g></svg>